# xmcd
#
# Track frame offsets:
#	150
#	14816
#	31858
#	51084
#	66362
#	86021
#	105492
#	106225
#	123717
#	141808
#	160094
#	173288
#	192759
#
# Disc length: 2594 seconds
#
# Revision: 1
# Processed by: cddbd v1.5.2PL0 Copyright (c) Steve Scherf et al.
# Submitted via: EasyCDDAExtractor 8.0.1.1
#
DISCID=a70a200d
DTITLE=דן תורן ושליחי הבלוז - פרח פרי
DYEAR=2005
DGENRE=Blues
TTITLE0=מי שצועק
TTITLE1=פניה במראה
TTITLE2=מתחת לפנס
TTITLE3=פרח פרי
TTITLE4=אשתו של לוט
TTITLE5=יחסית בסדר
TTITLE6=הפסקה
TTITLE7=הולך לאט
TTITLE8=שקוראים לו סופרמן
TTITLE9=ללקק את השפן
TTITLE10=פטרישיה סטארק
TTITLE11=בעתיד הלא רחוק
TTITLE12=קרדיטים
EXTD=
EXTT0=
EXTT1=
EXTT2=
EXTT3=
EXTT4=
EXTT5=
EXTT6=
EXTT7=
EXTT8=
EXTT9=
EXTT10=
EXTT11=
EXTT12=
PLAYORDER=
